# xmcd
#
# Track frame offsets:
#	150
#	19712
#	35945
#	49685
#	66952
#	82720
#	95305
#	110522
#	125425
#	142560
#	156162
#	171685
#	187590
#	219887
#
# Disc length: 3253 seconds
#
# Revision: 1
# Processed by: cddbd v1.5.1PL2 Copyright (c) Steve Scherf et al.
# Submitted via: audiograbber 1.83.01
#
DISCID=b00cb30e
DTITLE=Dierks Bentley - Dierks Bentley
DYEAR=2003
DGENRE=Country
TTITLE0=what was i thinkin'
TTITLE1=wish it would break
TTITLE2=forget about you
TTITLE3=i can only think of one
TTITLE4=my last name
TTITLE5=bartenders, etc...
TTITLE6=is anybody loving you these days
TTITLE7=my love will follow you
TTITLE8=how am i doin'
TTITLE9=distant shore
TTITLE10=i bought the shoes
TTITLE11=whiskey tears
TTITLE12=train travellin'
TTITLE13=Daten-CD
EXTD=
EXTT0=
EXTT1=
EXTT2=
EXTT3=
EXTT4=
EXTT5=
EXTT6=
EXTT7=
EXTT8=
EXTT9=
EXTT10=
EXTT11=
EXTT12=
EXTT13=
PLAYORDER=
